Coordinates
version=1
nRows=13
nColumns=38
inDegrees=no

Units are S.I. units (second, meters, Newtons, ...)
If the header above contains a line with 'inDegrees', this indicates whether rotational values are in degrees (yes) or radians (no).

endheader
time	pelvis_tilt	pelvis_list	pelvis_rotation	pelvis_tx	pelvis_ty	pelvis_tz	hip_flexion_r	hip_adduction_r	hip_rotation_r	knee_angle_r	ankle_angle_r	subtalar_angle_r	mtp_angle_r	hip_flexion_l	hip_adduction_l	hip_rotation_l	knee_angle_l	ankle_angle_l	subtalar_angle_l	mtp_angle_l	lumbar_extension	lumbar_bending	lumbar_rotation	arm_flex_r	arm_add_r	arm_rot_r	elbow_flex_r	pro_sup_r	wrist_flex_r	wrist_dev_r	arm_flex_l	arm_add_l	arm_rot_l	elbow_flex_l	pro_sup_l	wrist_flex_l	wrist_dev_l
0.94	-2.8396	1.4104	-1.96038	0.644263	0.645021	1.04288	-0.325009	-0.069922	-0.0919228	0.542911	-0.0727431	0	0	0.173336	0.0599248	-0.326911	0.39441	-0.215977	0	0	-0.373432	-0.0518966	-0.0107007	-0.166538	-0.184993	-0.112313	0.44069	0.350856	0	0	-0.304755	-0.398664	0.958755	0.540552	0.875423	0	0
0.95	-2.81365	1.40772	-1.9849	0.643383	0.65642	1.04374	-0.321606	-0.0755785	-0.0742602	0.570173	-0.0962455	0	0	0.168955	0.0633868	-0.324209	0.411962	-0.217948	0	0	-0.372568	-0.0588109	-0.0107148	-0.161496	-0.155489	-0.23547	0.425098	0.469261	0	0	-0.30326	-0.397684	0.941543	0.529511	0.89323	0	0
0.96	-2.80154	1.40502	-1.99353	0.641866	0.667802	1.04498	-0.316372	-0.0798997	-0.0571519	0.601018	-0.128851	0	0	0.162289	0.0668287	-0.318659	0.423777	-0.219899	0	0	-0.368775	-0.0627216	-0.0154419	-0.173335	-0.181603	-0.103777	0.433886	0.330625	0	0	-0.284036	-0.410895	1.02023	0.529805	0.819138	0	0
0.97	-2.78614	1.40499	-2.00525	0.640459	0.679166	1.04584	-0.305493	-0.0828933	-0.0396436	0.635291	-0.156359	0	0	0.156751	0.0693756	-0.311462	0.432937	-0.22169	0	0	-0.364435	-0.065396	-0.0181552	-0.177961	-0.179016	-0.107363	0.4308	0.337465	0	0	-0.278113	-0.415777	1.02551	0.527002	0.81696	0	0
0.98	-2.76926	1.40642	-2.01904	0.639048	0.690507	1.04649	-0.290347	-0.0857044	-0.0227185	0.672439	-0.189811	0	0	0.151411	0.0712333	-0.307774	0.439124	-0.222677	0	0	-0.3583	-0.0675837	-0.0200706	-0.183606	-0.176516	-0.113801	0.428722	0.346372	0	0	-0.272209	-0.422417	1.02945	0.52774	0.815907	0	0
0.99	-2.75367	1.40758	-2.03252	0.637753	0.701745	1.04711	-0.273497	-0.0883362	-0.00588201	0.711566	-0.22335	0	0	0.143669	0.0730328	-0.309077	0.440773	-0.222146	0	0	-0.352372	-0.0699381	-0.0219267	-0.189135	-0.173925	-0.122962	0.427954	0.35452	0	0	-0.266809	-0.430578	1.03019	0.53177	0.815896	0	0
1	-2.73774	1.40837	-2.04745	0.636505	0.712675	1.04769	-0.254427	-0.0910913	0.0110586	0.753249	-0.252376	0	0	0.134553	0.0756698	-0.312614	0.440151	-0.219971	0	0	-0.34706	-0.0725922	-0.0240462	-0.193512	-0.171484	-0.13357	0.428676	0.362463	0	0	-0.261527	-0.439927	1.02804	0.538586	0.816471	0	0
1.01	-2.72048	1.40859	-2.06461	0.635273	0.723165	1.04822	-0.232408	-0.0941418	0.0276978	0.798976	-0.274579	0	0	0.125228	0.0796427	-0.316437	0.439621	-0.216904	0	0	-0.342946	-0.0756884	-0.0264824	-0.196523	-0.169497	-0.143707	0.431039	0.371986	0	0	-0.255868	-0.450124	1.02332	0.547729	0.816686	0	0
1.02	-2.6987	1.40817	-2.08633	0.634271	0.733127	1.04865	-0.208533	-0.0967671	0.0436342	0.846866	-0.299074	0	0	0.11585	0.0851138	-0.320779	0.439384	-0.212613	0	0	-0.341344	-0.0794192	-0.0282752	-0.192887	-0.150751	-0.231515	0.426567	0.467111	0	0	-0.256525	-0.456619	0.980598	0.556199	0.850914	0	0
1.03	-2.6899	1.40441	-2.09591	0.633047	0.742968	1.04946	-0.186488	-0.099031	0.0580984	0.895739	-0.322459	0	0	0.102841	0.0912256	-0.326401	0.439462	-0.207282	0	0	-0.342655	-0.0835361	-0.0319461	-0.201409	-0.170535	-0.14323	0.44282	0.378352	0	0	-0.24282	-0.474154	1.00269	0.573344	0.822207	0	0
1.04	-2.67921	1.40024	-2.1066	0.632023	0.752475	1.05024	-0.163697	-0.10076	0.0706457	0.944188	-0.336527	0	0	0.0898137	0.0981714	-0.330547	0.43926	-0.20268	0	0	-0.345834	-0.087876	-0.0355034	-0.203668	-0.173318	-0.13363	0.450751	0.373898	0	0	-0.233247	-0.488397	0.997618	0.58793	0.820494	0	0
1.05	-2.67561	1.39568	-2.10926	0.631071	0.761812	1.05109	-0.141637	-0.100537	0.081696	0.990721	-0.344744	0	0	0.0748371	0.104322	-0.33216	0.436665	-0.19833	0	0	-0.350728	-0.0911101	-0.039301	-0.206249	-0.176227	-0.122756	0.459722	0.372636	0	0	-0.222684	-0.503333	0.990785	0.603215	0.821177	0	0
1.06	-2.67954	1.39183	-2.1031	0.630106	0.771069	1.05196	-0.12003	-0.0979501	0.090738	1.03402	-0.341662	0	0	0.0592739	0.10851	-0.332772	0.432556	-0.195061	0	0	-0.355567	-0.0921563	-0.0442496	-0.207526	-0.178198	-0.114874	0.467039	0.371754	0	0	-0.211293	-0.51776	0.984016	0.617346	0.822112	0	0
